<svg xmlns="http://www.w3.org/2000/svg" viewBox="0 0 820 520" width="820" height="520" style="background:#0d0d14;border-radius:12px">
  <defs>
    <style>
      text { font-family: 'JetBrains Mono', 'Courier New', monospace; }
    </style>
  </defs>

  <!-- Background -->
  <rect width="820" height="520" fill="#0d0d14" rx="12"/>

  <!-- Title -->


  <!-- ═══════════════════════════════════════════════ -->
  <!-- HEAP border -->
  <rect x="30" y="50" width="760" height="380" rx="14" fill="rgba(100,120,255,0.04)" stroke="#6478ff" stroke-width="1.5" stroke-opacity="0.3"/>

  <!-- ── SEGMENT 1 (x=48) ── -->
  <rect x="48" y="68" width="170" height="344" rx="10" fill="rgba(80,200,180,0.04)" stroke="#50c8b4" stroke-width="1.5" stroke-opacity="0.3"/>
  <!-- pages in seg 1 -->
  <!-- page rows: y = 82, 138, 194, 250, 306, 362 ; each h=46 -->
  <rect x="60" y="80"  width="146" height="44" rx="5" fill="rgba(255,200,100,0.05)" stroke="#ffc864" stroke-width="1" stroke-opacity="0.25"/>
  <rect x="60" y="130" width="146" height="44" rx="5" fill="rgba(255,200,100,0.05)" stroke="#ffc864" stroke-width="1" stroke-opacity="0.25"/>
  <rect x="60" y="180" width="146" height="44" rx="5" fill="rgba(255,200,100,0.05)" stroke="#ffc864" stroke-width="1" stroke-opacity="0.25"/>
  <rect x="60" y="230" width="146" height="44" rx="5" fill="rgba(255,200,100,0.05)" stroke="#ffc864" stroke-width="1" stroke-opacity="0.25"/>
  <rect x="60" y="280" width="146" height="44" rx="5" fill="rgba(255,200,100,0.05)" stroke="#ffc864" stroke-width="1" stroke-opacity="0.25"/>
  <rect x="60" y="330" width="146" height="44" rx="5" fill="rgba(255,200,100,0.05)" stroke="#ffc864" stroke-width="1" stroke-opacity="0.25"/>
  <!-- chunks inside each page of seg 1 -->
  <!-- page 1 -->
  <rect x="68"  y="89" width="18" height="26" rx="2" fill="rgba(255,200,100,0.18)" stroke="#ffc864" stroke-width="0.8" stroke-opacity="0.4"/>
  <rect x="92"  y="89" width="18" height="26" rx="2" fill="rgba(255,200,100,0.18)" stroke="#ffc864" stroke-width="0.8" stroke-opacity="0.4"/>
  <rect x="116" y="89" width="18" height="26" rx="2" fill="rgba(255,200,100,0.18)" stroke="#ffc864" stroke-width="0.8" stroke-opacity="0.4"/>
  <rect x="140" y="89" width="18" height="26" rx="2" fill="rgba(255,200,100,0.18)" stroke="#ffc864" stroke-width="0.8" stroke-opacity="0.4"/>
  <rect x="164" y="89" width="18" height="26" rx="2" fill="rgba(255,200,100,0.18)" stroke="#ffc864" stroke-width="0.8" stroke-opacity="0.4"/>
  <rect x="188" y="89" width="10" height="26" rx="2" fill="rgba(255,200,100,0.18)" stroke="#ffc864" stroke-width="0.8" stroke-opacity="0.4"/>
  <!-- repeat chunks for remaining 5 pages - seg 1 -->
  <rect x="68"  y="139" width="18" height="26" rx="2" fill="rgba(255,200,100,0.18)" stroke="#ffc864" stroke-width="0.8" stroke-opacity="0.4"/>
  <rect x="92"  y="139" width="18" height="26" rx="2" fill="rgba(255,200,100,0.18)" stroke="#ffc864" stroke-width="0.8" stroke-opacity="0.4"/>
  <rect x="116" y="139" width="18" height="26" rx="2" fill="rgba(255,200,100,0.18)" stroke="#ffc864" stroke-width="0.8" stroke-opacity="0.4"/>
  <rect x="140" y="139" width="18" height="26" rx="2" fill="rgba(255,200,100,0.18)" stroke="#ffc864" stroke-width="0.8" stroke-opacity="0.4"/>
  <rect x="164" y="139" width="18" height="26" rx="2" fill="rgba(255,200,100,0.18)" stroke="#ffc864" stroke-width="0.8" stroke-opacity="0.4"/>
  <rect x="188" y="139" width="10" height="26" rx="2" fill="rgba(255,200,100,0.18)" stroke="#ffc864" stroke-width="0.8" stroke-opacity="0.4"/>
  <rect x="68"  y="189" width="18" height="26" rx="2" fill="rgba(255,200,100,0.18)" stroke="#ffc864" stroke-width="0.8" stroke-opacity="0.4"/>
  <rect x="92"  y="189" width="18" height="26" rx="2" fill="rgba(255,200,100,0.18)" stroke="#ffc864" stroke-width="0.8" stroke-opacity="0.4"/>
  <rect x="116" y="189" width="18" height="26" rx="2" fill="rgba(255,200,100,0.18)" stroke="#ffc864" stroke-width="0.8" stroke-opacity="0.4"/>
  <rect x="140" y="189" width="18" height="26" rx="2" fill="rgba(255,200,100,0.18)" stroke="#ffc864" stroke-width="0.8" stroke-opacity="0.4"/>
  <rect x="164" y="189" width="18" height="26" rx="2" fill="rgba(255,200,100,0.18)" stroke="#ffc864" stroke-width="0.8" stroke-opacity="0.4"/>
  <rect x="188" y="189" width="10" height="26" rx="2" fill="rgba(255,200,100,0.18)" stroke="#ffc864" stroke-width="0.8" stroke-opacity="0.4"/>
  <rect x="68"  y="239" width="18" height="26" rx="2" fill="rgba(255,200,100,0.18)" stroke="#ffc864" stroke-width="0.8" stroke-opacity="0.4"/>
  <rect x="92"  y="239" width="18" height="26" rx="2" fill="rgba(255,200,100,0.18)" stroke="#ffc864" stroke-width="0.8" stroke-opacity="0.4"/>
  <rect x="116" y="239" width="18" height="26" rx="2" fill="rgba(255,200,100,0.18)" stroke="#ffc864" stroke-width="0.8" stroke-opacity="0.4"/>
  <rect x="140" y="239" width="18" height="26" rx="2" fill="rgba(255,200,100,0.18)" stroke="#ffc864" stroke-width="0.8" stroke-opacity="0.4"/>
  <rect x="164" y="239" width="18" height="26" rx="2" fill="rgba(255,200,100,0.18)" stroke="#ffc864" stroke-width="0.8" stroke-opacity="0.4"/>
  <rect x="188" y="239" width="10" height="26" rx="2" fill="rgba(255,200,100,0.18)" stroke="#ffc864" stroke-width="0.8" stroke-opacity="0.4"/>
  <rect x="68"  y="289" width="18" height="26" rx="2" fill="rgba(255,200,100,0.18)" stroke="#ffc864" stroke-width="0.8" stroke-opacity="0.4"/>
  <rect x="92"  y="289" width="18" height="26" rx="2" fill="rgba(255,200,100,0.18)" stroke="#ffc864" stroke-width="0.8" stroke-opacity="0.4"/>
  <rect x="116" y="289" width="18" height="26" rx="2" fill="rgba(255,200,100,0.18)" stroke="#ffc864" stroke-width="0.8" stroke-opacity="0.4"/>
  <rect x="140" y="289" width="18" height="26" rx="2" fill="rgba(255,200,100,0.18)" stroke="#ffc864" stroke-width="0.8" stroke-opacity="0.4"/>
  <rect x="164" y="289" width="18" height="26" rx="2" fill="rgba(255,200,100,0.18)" stroke="#ffc864" stroke-width="0.8" stroke-opacity="0.4"/>
  <rect x="188" y="289" width="10" height="26" rx="2" fill="rgba(255,200,100,0.18)" stroke="#ffc864" stroke-width="0.8" stroke-opacity="0.4"/>
  <rect x="68"  y="339" width="18" height="26" rx="2" fill="rgba(255,200,100,0.18)" stroke="#ffc864" stroke-width="0.8" stroke-opacity="0.4"/>
  <rect x="92"  y="339" width="18" height="26" rx="2" fill="rgba(255,200,100,0.18)" stroke="#ffc864" stroke-width="0.8" stroke-opacity="0.4"/>
  <rect x="116" y="339" width="18" height="26" rx="2" fill="rgba(255,200,100,0.18)" stroke="#ffc864" stroke-width="0.8" stroke-opacity="0.4"/>
  <rect x="140" y="339" width="18" height="26" rx="2" fill="rgba(255,200,100,0.18)" stroke="#ffc864" stroke-width="0.8" stroke-opacity="0.4"/>
  <rect x="164" y="339" width="18" height="26" rx="2" fill="rgba(255,200,100,0.18)" stroke="#ffc864" stroke-width="0.8" stroke-opacity="0.4"/>
  <rect x="188" y="339" width="10" height="26" rx="2" fill="rgba(255,200,100,0.18)" stroke="#ffc864" stroke-width="0.8" stroke-opacity="0.4"/>

  <!-- ── SEGMENT 2 (x=232) ── -->
  <rect x="232" y="68" width="170" height="344" rx="10" fill="rgba(80,200,180,0.04)" stroke="#50c8b4" stroke-width="1.5" stroke-opacity="0.3"/>
  <rect x="244" y="80"  width="146" height="44" rx="5" fill="rgba(255,200,100,0.05)" stroke="#ffc864" stroke-width="1" stroke-opacity="0.25"/>
  <rect x="244" y="130" width="146" height="44" rx="5" fill="rgba(255,200,100,0.05)" stroke="#ffc864" stroke-width="1" stroke-opacity="0.25"/>
  <rect x="244" y="180" width="146" height="44" rx="5" fill="rgba(255,200,100,0.05)" stroke="#ffc864" stroke-width="1" stroke-opacity="0.25"/>
  <rect x="244" y="230" width="146" height="44" rx="5" fill="rgba(255,200,100,0.05)" stroke="#ffc864" stroke-width="1" stroke-opacity="0.25"/>
  <rect x="244" y="280" width="146" height="44" rx="5" fill="rgba(255,200,100,0.05)" stroke="#ffc864" stroke-width="1" stroke-opacity="0.25"/>
  <rect x="244" y="330" width="146" height="44" rx="5" fill="rgba(255,200,100,0.05)" stroke="#ffc864" stroke-width="1" stroke-opacity="0.25"/>
  <!-- chunks seg2 page1 -->
  <rect x="252" y="89" width="18" height="26" rx="2" fill="rgba(255,200,100,0.18)" stroke="#ffc864" stroke-width="0.8" stroke-opacity="0.4"/>
  <rect x="276" y="89" width="18" height="26" rx="2" fill="rgba(255,200,100,0.18)" stroke="#ffc864" stroke-width="0.8" stroke-opacity="0.4"/>
  <rect x="300" y="89" width="18" height="26" rx="2" fill="rgba(255,200,100,0.18)" stroke="#ffc864" stroke-width="0.8" stroke-opacity="0.4"/>
  <rect x="324" y="89" width="18" height="26" rx="2" fill="rgba(255,200,100,0.18)" stroke="#ffc864" stroke-width="0.8" stroke-opacity="0.4"/>
  <rect x="348" y="89" width="18" height="26" rx="2" fill="rgba(255,200,100,0.18)" stroke="#ffc864" stroke-width="0.8" stroke-opacity="0.4"/>
  <rect x="372" y="89" width="10" height="26" rx="2" fill="rgba(255,200,100,0.18)" stroke="#ffc864" stroke-width="0.8" stroke-opacity="0.4"/>
  <rect x="252" y="139" width="18" height="26" rx="2" fill="rgba(255,200,100,0.18)" stroke="#ffc864" stroke-width="0.8" stroke-opacity="0.4"/>
  <rect x="276" y="139" width="18" height="26" rx="2" fill="rgba(255,200,100,0.18)" stroke="#ffc864" stroke-width="0.8" stroke-opacity="0.4"/>
  <rect x="300" y="139" width="18" height="26" rx="2" fill="rgba(255,200,100,0.18)" stroke="#ffc864" stroke-width="0.8" stroke-opacity="0.4"/>
  <rect x="324" y="139" width="18" height="26" rx="2" fill="rgba(255,200,100,0.18)" stroke="#ffc864" stroke-width="0.8" stroke-opacity="0.4"/>
  <rect x="348" y="139" width="18" height="26" rx="2" fill="rgba(255,200,100,0.18)" stroke="#ffc864" stroke-width="0.8" stroke-opacity="0.4"/>
  <rect x="372" y="139" width="10" height="26" rx="2" fill="rgba(255,200,100,0.18)" stroke="#ffc864" stroke-width="0.8" stroke-opacity="0.4"/>
  <rect x="252" y="189" width="18" height="26" rx="2" fill="rgba(255,200,100,0.18)" stroke="#ffc864" stroke-width="0.8" stroke-opacity="0.4"/>
  <rect x="276" y="189" width="18" height="26" rx="2" fill="rgba(255,200,100,0.18)" stroke="#ffc864" stroke-width="0.8" stroke-opacity="0.4"/>
  <rect x="300" y="189" width="18" height="26" rx="2" fill="rgba(255,200,100,0.18)" stroke="#ffc864" stroke-width="0.8" stroke-opacity="0.4"/>
  <rect x="324" y="189" width="18" height="26" rx="2" fill="rgba(255,200,100,0.18)" stroke="#ffc864" stroke-width="0.8" stroke-opacity="0.4"/>
  <rect x="348" y="189" width="18" height="26" rx="2" fill="rgba(255,200,100,0.18)" stroke="#ffc864" stroke-width="0.8" stroke-opacity="0.4"/>
  <rect x="372" y="189" width="10" height="26" rx="2" fill="rgba(255,200,100,0.18)" stroke="#ffc864" stroke-width="0.8" stroke-opacity="0.4"/>
  <rect x="252" y="239" width="18" height="26" rx="2" fill="rgba(255,200,100,0.18)" stroke="#ffc864" stroke-width="0.8" stroke-opacity="0.4"/>
  <rect x="276" y="239" width="18" height="26" rx="2" fill="rgba(255,200,100,0.18)" stroke="#ffc864" stroke-width="0.8" stroke-opacity="0.4"/>
  <rect x="300" y="239" width="18" height="26" rx="2" fill="rgba(255,200,100,0.18)" stroke="#ffc864" stroke-width="0.8" stroke-opacity="0.4"/>
  <rect x="324" y="239" width="18" height="26" rx="2" fill="rgba(255,200,100,0.18)" stroke="#ffc864" stroke-width="0.8" stroke-opacity="0.4"/>
  <rect x="348" y="239" width="18" height="26" rx="2" fill="rgba(255,200,100,0.18)" stroke="#ffc864" stroke-width="0.8" stroke-opacity="0.4"/>
  <rect x="372" y="239" width="10" height="26" rx="2" fill="rgba(255,200,100,0.18)" stroke="#ffc864" stroke-width="0.8" stroke-opacity="0.4"/>
  <rect x="252" y="289" width="18" height="26" rx="2" fill="rgba(255,200,100,0.18)" stroke="#ffc864" stroke-width="0.8" stroke-opacity="0.4"/>
  <rect x="276" y="289" width="18" height="26" rx="2" fill="rgba(255,200,100,0.18)" stroke="#ffc864" stroke-width="0.8" stroke-opacity="0.4"/>
  <rect x="300" y="289" width="18" height="26" rx="2" fill="rgba(255,200,100,0.18)" stroke="#ffc864" stroke-width="0.8" stroke-opacity="0.4"/>
  <rect x="324" y="289" width="18" height="26" rx="2" fill="rgba(255,200,100,0.18)" stroke="#ffc864" stroke-width="0.8" stroke-opacity="0.4"/>
  <rect x="348" y="289" width="18" height="26" rx="2" fill="rgba(255,200,100,0.18)" stroke="#ffc864" stroke-width="0.8" stroke-opacity="0.4"/>
  <rect x="372" y="289" width="10" height="26" rx="2" fill="rgba(255,200,100,0.18)" stroke="#ffc864" stroke-width="0.8" stroke-opacity="0.4"/>
  <rect x="252" y="339" width="18" height="26" rx="2" fill="rgba(255,200,100,0.18)" stroke="#ffc864" stroke-width="0.8" stroke-opacity="0.4"/>
  <rect x="276" y="339" width="18" height="26" rx="2" fill="rgba(255,200,100,0.18)" stroke="#ffc864" stroke-width="0.8" stroke-opacity="0.4"/>
  <rect x="300" y="339" width="18" height="26" rx="2" fill="rgba(255,200,100,0.18)" stroke="#ffc864" stroke-width="0.8" stroke-opacity="0.4"/>
  <rect x="324" y="339" width="18" height="26" rx="2" fill="rgba(255,200,100,0.18)" stroke="#ffc864" stroke-width="0.8" stroke-opacity="0.4"/>
  <rect x="348" y="339" width="18" height="26" rx="2" fill="rgba(255,200,100,0.18)" stroke="#ffc864" stroke-width="0.8" stroke-opacity="0.4"/>
  <rect x="372" y="339" width="10" height="26" rx="2" fill="rgba(255,200,100,0.18)" stroke="#ffc864" stroke-width="0.8" stroke-opacity="0.4"/>

  <!-- ── SEGMENT 3 (x=416) ── -->
  <rect x="416" y="68" width="170" height="344" rx="10" fill="rgba(80,200,180,0.04)" stroke="#50c8b4" stroke-width="1.5" stroke-opacity="0.3"/>
  <rect x="428" y="80"  width="146" height="44" rx="5" fill="rgba(255,200,100,0.05)" stroke="#ffc864" stroke-width="1" stroke-opacity="0.25"/>
  <rect x="428" y="130" width="146" height="44" rx="5" fill="rgba(255,200,100,0.05)" stroke="#ffc864" stroke-width="1" stroke-opacity="0.25"/>
  <rect x="428" y="180" width="146" height="44" rx="5" fill="rgba(255,200,100,0.05)" stroke="#ffc864" stroke-width="1" stroke-opacity="0.25"/>
  <rect x="428" y="230" width="146" height="44" rx="5" fill="rgba(255,200,100,0.05)" stroke="#ffc864" stroke-width="1" stroke-opacity="0.25"/>
  <rect x="428" y="280" width="146" height="44" rx="5" fill="rgba(255,200,100,0.05)" stroke="#ffc864" stroke-width="1" stroke-opacity="0.25"/>
  <rect x="428" y="330" width="146" height="44" rx="5" fill="rgba(255,200,100,0.05)" stroke="#ffc864" stroke-width="1" stroke-opacity="0.25"/>
  <rect x="436" y="89" width="18" height="26" rx="2" fill="rgba(255,200,100,0.18)" stroke="#ffc864" stroke-width="0.8" stroke-opacity="0.4"/>
  <rect x="460" y="89" width="18" height="26" rx="2" fill="rgba(255,200,100,0.18)" stroke="#ffc864" stroke-width="0.8" stroke-opacity="0.4"/>
  <rect x="484" y="89" width="18" height="26" rx="2" fill="rgba(255,200,100,0.18)" stroke="#ffc864" stroke-width="0.8" stroke-opacity="0.4"/>
  <rect x="508" y="89" width="18" height="26" rx="2" fill="rgba(255,200,100,0.18)" stroke="#ffc864" stroke-width="0.8" stroke-opacity="0.4"/>
  <rect x="532" y="89" width="18" height="26" rx="2" fill="rgba(255,200,100,0.18)" stroke="#ffc864" stroke-width="0.8" stroke-opacity="0.4"/>
  <rect x="556" y="89" width="10" height="26" rx="2" fill="rgba(255,200,100,0.18)" stroke="#ffc864" stroke-width="0.8" stroke-opacity="0.4"/>
  <rect x="436" y="139" width="18" height="26" rx="2" fill="rgba(255,200,100,0.18)" stroke="#ffc864" stroke-width="0.8" stroke-opacity="0.4"/>
  <rect x="460" y="139" width="18" height="26" rx="2" fill="rgba(255,200,100,0.18)" stroke="#ffc864" stroke-width="0.8" stroke-opacity="0.4"/>
  <rect x="484" y="139" width="18" height="26" rx="2" fill="rgba(255,200,100,0.18)" stroke="#ffc864" stroke-width="0.8" stroke-opacity="0.4"/>
  <rect x="508" y="139" width="18" height="26" rx="2" fill="rgba(255,200,100,0.18)" stroke="#ffc864" stroke-width="0.8" stroke-opacity="0.4"/>
  <rect x="532" y="139" width="18" height="26" rx="2" fill="rgba(255,200,100,0.18)" stroke="#ffc864" stroke-width="0.8" stroke-opacity="0.4"/>
  <rect x="556" y="139" width="10" height="26" rx="2" fill="rgba(255,200,100,0.18)" stroke="#ffc864" stroke-width="0.8" stroke-opacity="0.4"/>
  <rect x="436" y="189" width="18" height="26" rx="2" fill="rgba(255,200,100,0.18)" stroke="#ffc864" stroke-width="0.8" stroke-opacity="0.4"/>
  <rect x="460" y="189" width="18" height="26" rx="2" fill="rgba(255,200,100,0.18)" stroke="#ffc864" stroke-width="0.8" stroke-opacity="0.4"/>
  <rect x="484" y="189" width="18" height="26" rx="2" fill="rgba(255,200,100,0.18)" stroke="#ffc864" stroke-width="0.8" stroke-opacity="0.4"/>
  <rect x="508" y="189" width="18" height="26" rx="2" fill="rgba(255,200,100,0.18)" stroke="#ffc864" stroke-width="0.8" stroke-opacity="0.4"/>
  <rect x="532" y="189" width="18" height="26" rx="2" fill="rgba(255,200,100,0.18)" stroke="#ffc864" stroke-width="0.8" stroke-opacity="0.4"/>
  <rect x="556" y="189" width="10" height="26" rx="2" fill="rgba(255,200,100,0.18)" stroke="#ffc864" stroke-width="0.8" stroke-opacity="0.4"/>
  <rect x="436" y="239" width="18" height="26" rx="2" fill="rgba(255,200,100,0.18)" stroke="#ffc864" stroke-width="0.8" stroke-opacity="0.4"/>
  <rect x="460" y="239" width="18" height="26" rx="2" fill="rgba(255,200,100,0.18)" stroke="#ffc864" stroke-width="0.8" stroke-opacity="0.4"/>
  <rect x="484" y="239" width="18" height="26" rx="2" fill="rgba(255,200,100,0.18)" stroke="#ffc864" stroke-width="0.8" stroke-opacity="0.4"/>
  <rect x="508" y="239" width="18" height="26" rx="2" fill="rgba(255,200,100,0.18)" stroke="#ffc864" stroke-width="0.8" stroke-opacity="0.4"/>
  <rect x="532" y="239" width="18" height="26" rx="2" fill="rgba(255,200,100,0.18)" stroke="#ffc864" stroke-width="0.8" stroke-opacity="0.4"/>
  <rect x="556" y="239" width="10" height="26" rx="2" fill="rgba(255,200,100,0.18)" stroke="#ffc864" stroke-width="0.8" stroke-opacity="0.4"/>
  <rect x="436" y="289" width="18" height="26" rx="2" fill="rgba(255,200,100,0.18)" stroke="#ffc864" stroke-width="0.8" stroke-opacity="0.4"/>
  <rect x="460" y="289" width="18" height="26" rx="2" fill="rgba(255,200,100,0.18)" stroke="#ffc864" stroke-width="0.8" stroke-opacity="0.4"/>
  <rect x="484" y="289" width="18" height="26" rx="2" fill="rgba(255,200,100,0.18)" stroke="#ffc864" stroke-width="0.8" stroke-opacity="0.4"/>
  <rect x="508" y="289" width="18" height="26" rx="2" fill="rgba(255,200,100,0.18)" stroke="#ffc864" stroke-width="0.8" stroke-opacity="0.4"/>
  <rect x="532" y="289" width="18" height="26" rx="2" fill="rgba(255,200,100,0.18)" stroke="#ffc864" stroke-width="0.8" stroke-opacity="0.4"/>
  <rect x="556" y="289" width="10" height="26" rx="2" fill="rgba(255,200,100,0.18)" stroke="#ffc864" stroke-width="0.8" stroke-opacity="0.4"/>
  <rect x="436" y="339" width="18" height="26" rx="2" fill="rgba(255,200,100,0.18)" stroke="#ffc864" stroke-width="0.8" stroke-opacity="0.4"/>
  <rect x="460" y="339" width="18" height="26" rx="2" fill="rgba(255,200,100,0.18)" stroke="#ffc864" stroke-width="0.8" stroke-opacity="0.4"/>
  <rect x="484" y="339" width="18" height="26" rx="2" fill="rgba(255,200,100,0.18)" stroke="#ffc864" stroke-width="0.8" stroke-opacity="0.4"/>
  <rect x="508" y="339" width="18" height="26" rx="2" fill="rgba(255,200,100,0.18)" stroke="#ffc864" stroke-width="0.8" stroke-opacity="0.4"/>
  <rect x="532" y="339" width="18" height="26" rx="2" fill="rgba(255,200,100,0.18)" stroke="#ffc864" stroke-width="0.8" stroke-opacity="0.4"/>
  <rect x="556" y="339" width="10" height="26" rx="2" fill="rgba(255,200,100,0.18)" stroke="#ffc864" stroke-width="0.8" stroke-opacity="0.4"/>

  <!-- ── SEGMENT 4 (x=600) ── -->
  <rect x="600" y="68" width="170" height="344" rx="10" fill="rgba(80,200,180,0.04)" stroke="#50c8b4" stroke-width="1.5" stroke-opacity="0.3"/>
  <rect x="612" y="80"  width="146" height="44" rx="5" fill="rgba(255,200,100,0.05)" stroke="#ffc864" stroke-width="1" stroke-opacity="0.25"/>
  <rect x="612" y="130" width="146" height="44" rx="5" fill="rgba(255,200,100,0.05)" stroke="#ffc864" stroke-width="1" stroke-opacity="0.25"/>
  <rect x="612" y="180" width="146" height="44" rx="5" fill="rgba(255,200,100,0.05)" stroke="#ffc864" stroke-width="1" stroke-opacity="0.25"/>
  <rect x="612" y="230" width="146" height="44" rx="5" fill="rgba(255,200,100,0.05)" stroke="#ffc864" stroke-width="1" stroke-opacity="0.25"/>
  <rect x="612" y="280" width="146" height="44" rx="5" fill="rgba(255,200,100,0.05)" stroke="#ffc864" stroke-width="1" stroke-opacity="0.25"/>
  <rect x="612" y="330" width="146" height="44" rx="5" fill="rgba(255,200,100,0.05)" stroke="#ffc864" stroke-width="1" stroke-opacity="0.25"/>
  <rect x="620" y="89" width="18" height="26" rx="2" fill="rgba(255,200,100,0.18)" stroke="#ffc864" stroke-width="0.8" stroke-opacity="0.4"/>
  <rect x="644" y="89" width="18" height="26" rx="2" fill="rgba(255,200,100,0.18)" stroke="#ffc864" stroke-width="0.8" stroke-opacity="0.4"/>
  <rect x="668" y="89" width="18" height="26" rx="2" fill="rgba(255,200,100,0.18)" stroke="#ffc864" stroke-width="0.8" stroke-opacity="0.4"/>
  <rect x="692" y="89" width="18" height="26" rx="2" fill="rgba(255,200,100,0.18)" stroke="#ffc864" stroke-width="0.8" stroke-opacity="0.4"/>
  <rect x="716" y="89" width="18" height="26" rx="2" fill="rgba(255,200,100,0.18)" stroke="#ffc864" stroke-width="0.8" stroke-opacity="0.4"/>
  <rect x="740" y="89" width="10" height="26" rx="2" fill="rgba(255,200,100,0.18)" stroke="#ffc864" stroke-width="0.8" stroke-opacity="0.4"/>
  <rect x="620" y="139" width="18" height="26" rx="2" fill="rgba(255,200,100,0.18)" stroke="#ffc864" stroke-width="0.8" stroke-opacity="0.4"/>
  <rect x="644" y="139" width="18" height="26" rx="2" fill="rgba(255,200,100,0.18)" stroke="#ffc864" stroke-width="0.8" stroke-opacity="0.4"/>
  <rect x="668" y="139" width="18" height="26" rx="2" fill="rgba(255,200,100,0.18)" stroke="#ffc864" stroke-width="0.8" stroke-opacity="0.4"/>
  <rect x="692" y="139" width="18" height="26" rx="2" fill="rgba(255,200,100,0.18)" stroke="#ffc864" stroke-width="0.8" stroke-opacity="0.4"/>
  <rect x="716" y="139" width="18" height="26" rx="2" fill="rgba(255,200,100,0.18)" stroke="#ffc864" stroke-width="0.8" stroke-opacity="0.4"/>
  <rect x="740" y="139" width="10" height="26" rx="2" fill="rgba(255,200,100,0.18)" stroke="#ffc864" stroke-width="0.8" stroke-opacity="0.4"/>
  <rect x="620" y="189" width="18" height="26" rx="2" fill="rgba(255,200,100,0.18)" stroke="#ffc864" stroke-width="0.8" stroke-opacity="0.4"/>
  <rect x="644" y="189" width="18" height="26" rx="2" fill="rgba(255,200,100,0.18)" stroke="#ffc864" stroke-width="0.8" stroke-opacity="0.4"/>
  <rect x="668" y="189" width="18" height="26" rx="2" fill="rgba(255,200,100,0.18)" stroke="#ffc864" stroke-width="0.8" stroke-opacity="0.4"/>
  <rect x="692" y="189" width="18" height="26" rx="2" fill="rgba(255,200,100,0.18)" stroke="#ffc864" stroke-width="0.8" stroke-opacity="0.4"/>
  <rect x="716" y="189" width="18" height="26" rx="2" fill="rgba(255,200,100,0.18)" stroke="#ffc864" stroke-width="0.8" stroke-opacity="0.4"/>
  <rect x="740" y="189" width="10" height="26" rx="2" fill="rgba(255,200,100,0.18)" stroke="#ffc864" stroke-width="0.8" stroke-opacity="0.4"/>
  <rect x="620" y="239" width="18" height="26" rx="2" fill="rgba(255,200,100,0.18)" stroke="#ffc864" stroke-width="0.8" stroke-opacity="0.4"/>
  <rect x="644" y="239" width="18" height="26" rx="2" fill="rgba(255,200,100,0.18)" stroke="#ffc864" stroke-width="0.8" stroke-opacity="0.4"/>
  <rect x="668" y="239" width="18" height="26" rx="2" fill="rgba(255,200,100,0.18)" stroke="#ffc864" stroke-width="0.8" stroke-opacity="0.4"/>
  <rect x="692" y="239" width="18" height="26" rx="2" fill="rgba(255,200,100,0.18)" stroke="#ffc864" stroke-width="0.8" stroke-opacity="0.4"/>
  <rect x="716" y="239" width="18" height="26" rx="2" fill="rgba(255,200,100,0.18)" stroke="#ffc864" stroke-width="0.8" stroke-opacity="0.4"/>
  <rect x="740" y="239" width="10" height="26" rx="2" fill="rgba(255,200,100,0.18)" stroke="#ffc864" stroke-width="0.8" stroke-opacity="0.4"/>
  <rect x="620" y="289" width="18" height="26" rx="2" fill="rgba(255,200,100,0.18)" stroke="#ffc864" stroke-width="0.8" stroke-opacity="0.4"/>
  <rect x="644" y="289" width="18" height="26" rx="2" fill="rgba(255,200,100,0.18)" stroke="#ffc864" stroke-width="0.8" stroke-opacity="0.4"/>
  <rect x="668" y="289" width="18" height="26" rx="2" fill="rgba(255,200,100,0.18)" stroke="#ffc864" stroke-width="0.8" stroke-opacity="0.4"/>
  <rect x="692" y="289" width="18" height="26" rx="2" fill="rgba(255,200,100,0.18)" stroke="#ffc864" stroke-width="0.8" stroke-opacity="0.4"/>
  <rect x="716" y="289" width="18" height="26" rx="2" fill="rgba(255,200,100,0.18)" stroke="#ffc864" stroke-width="0.8" stroke-opacity="0.4"/>
  <rect x="740" y="289" width="10" height="26" rx="2" fill="rgba(255,200,100,0.18)" stroke="#ffc864" stroke-width="0.8" stroke-opacity="0.4"/>
  <rect x="620" y="339" width="18" height="26" rx="2" fill="rgba(255,200,100,0.18)" stroke="#ffc864" stroke-width="0.8" stroke-opacity="0.4"/>
  <rect x="644" y="339" width="18" height="26" rx="2" fill="rgba(255,200,100,0.18)" stroke="#ffc864" stroke-width="0.8" stroke-opacity="0.4"/>
  <rect x="668" y="339" width="18" height="26" rx="2" fill="rgba(255,200,100,0.18)" stroke="#ffc864" stroke-width="0.8" stroke-opacity="0.4"/>
  <rect x="692" y="339" width="18" height="26" rx="2" fill="rgba(255,200,100,0.18)" stroke="#ffc864" stroke-width="0.8" stroke-opacity="0.4"/>
  <rect x="716" y="339" width="18" height="26" rx="2" fill="rgba(255,200,100,0.18)" stroke="#ffc864" stroke-width="0.8" stroke-opacity="0.4"/>
  <rect x="740" y="339" width="10" height="26" rx="2" fill="rgba(255,200,100,0.18)" stroke="#ffc864" stroke-width="0.8" stroke-opacity="0.4"/>

  <!-- ══════════════════════════════════ -->
  <!-- LABELS with callout lines -->

  <!-- Heap label (bottom center) -->
  <text x="410" y="468" text-anchor="middle" fill="#6478ff" font-size="13" letter-spacing="2" font-weight="700">HEAP</text>
  <!-- Heap bracket line -->
  <line x1="30"  y1="455" x2="30"  y2="445" stroke="#6478ff" stroke-width="1" stroke-opacity="0.5"/>
  <line x1="790" y1="455" x2="790" y2="445" stroke="#6478ff" stroke-width="1" stroke-opacity="0.5"/>
  <line x1="30"  y1="455" x2="790" y2="455" stroke="#6478ff" stroke-width="1" stroke-opacity="0.5"/>
  <line x1="410" y1="455" x2="410" y2="462" stroke="#6478ff" stroke-width="1" stroke-opacity="0.5"/>

  <!-- Segment label -->
  <text x="133" y="435" text-anchor="middle" fill="#50c8b4" font-size="10" letter-spacing="1.5">SEGMENT</text>
  <line x1="133" y1="430" x2="133" y2="415" stroke="#50c8b4" stroke-width="1" stroke-opacity="0.5"/>
  <line x1="48"  y1="415" x2="218" y2="415" stroke="#50c8b4" stroke-width="1" stroke-opacity="0.5"/>
  <line x1="48"  y1="415" x2="48"  y2="412" stroke="#50c8b4" stroke-width="1" stroke-opacity="0.5"/>
  <line x1="218" y1="415" x2="218" y2="412" stroke="#50c8b4" stroke-width="1" stroke-opacity="0.5"/>

  <!-- Page label — callout to seg 2, page 2 -->
  <line x1="244" y1="152" x2="220" y2="152" stroke="#ffc864" stroke-width="1" stroke-opacity="0.7"/>
  <line x1="220" y1="152" x2="200" y2="175" stroke="#ffc864" stroke-width="1" stroke-opacity="0.7"/>
  <text x="196" y="188" text-anchor="end" fill="#ffc864" font-size="10" letter-spacing="1.5">PAGE</text>

  <!-- Chunk label — callout to seg 3, page 1, chunk 3 (line touches top of chunk) -->
  <line x1="484" y1="89" x2="484" y2="62" stroke="#ffc864" stroke-width="1" stroke-opacity="0.7"/>
  <line x1="484" y1="62" x2="590" y2="48" stroke="#ffc864" stroke-width="1" stroke-opacity="0.7"/>
  <text x="594" y="52" fill="#ffc864" font-size="10" letter-spacing="1.5">CHUNK</text>

  <!-- Legend row -->
  <rect x="200" y="490" width="14" height="8"  rx="2" fill="rgba(100,120,255,0.3)" stroke="#6478ff" stroke-width="1"/>
  <text x="219" y="498" fill="#6478ff" font-size="10" letter-spacing="1">Heap</text>

  <rect x="300" y="490" width="14" height="8" rx="2" fill="rgba(80,200,180,0.2)" stroke="#50c8b4" stroke-width="1"/>
  <text x="319" y="498" fill="#50c8b4" font-size="10" letter-spacing="1">Segment</text>

  <rect x="420" y="490" width="14" height="8" rx="2" fill="rgba(255,200,100,0.1)" stroke="#ffc864" stroke-width="1"/>
  <text x="439" y="498" fill="#ffc864" font-size="10" letter-spacing="1">Page</text>

  <rect x="510" y="490" width="14" height="8" rx="2" fill="rgba(255,200,100,0.4)" stroke="#ffc864" stroke-width="1"/>
  <text x="529" y="498" fill="#ffc864" font-size="10" letter-spacing="1">Chunk</text>

</svg>
